<svg viewBox="0 0 480 480" width="2048" height="2048" xmlns="http://www.w3.org/2000/svg"><defs><defs><filter id="g1-grain" x="-5%" y="-5%" width="110%" height="110%"><feTurbulence type="fractalNoise" baseFrequency="0.9" numOctaves="2" seed="4"></feTurbulence><feColorMatrix values="0 0 0 0 0  0 0 0 0 0  0 0 0 0 0  0 0 0 0.35 0"></feColorMatrix><feComposite in2="SourceGraphic" operator="in"></feComposite><feBlend in="SourceGraphic" mode="multiply"></feBlend></filter><filter id="g1-erode" x="-5%" y="-5%" width="110%" height="110%"><feTurbulence type="fractalNoise" baseFrequency="0.6" numOctaves="3" seed="7"></feTurbulence><feDisplacementMap in="SourceGraphic" scale="1.2"></feDisplacementMap></filter></defs><radialGradient id="g1-disc" cx="42%" cy="36%" r="75%"><stop offset="0%" stop-color="#3a3836"></stop><stop offset="45%" stop-color="#1f1d1b"></stop><stop offset="85%" stop-color="#0c0b0a"></stop><stop offset="100%" stop-color="#050504"></stop></radialGradient><radialGradient id="g1-iris" cx="50%" cy="50%" r="55%"><stop offset="0%" stop-color="#1a1a1a"></stop><stop offset="30%" stop-color="#5e5e5e"></stop><stop offset="70%" stop-color="#c4c4c4"></stop><stop offset="100%" stop-color="#4a4a4a"></stop></radialGradient><radialGradient id="g1-sclera" cx="50%" cy="45%" r="70%"><stop offset="0%" stop-color="#b8b8b6"></stop><stop offset="55%" stop-color="#6a6a68"></stop><stop offset="100%" stop-color="#2a2a28"></stop></radialGradient><radialGradient id="g1-vignette" cx="50%" cy="50%" r="60%"><stop offset="55%" stop-color="#000" stop-opacity="0"></stop><stop offset="100%" stop-color="#000" stop-opacity="0.92"></stop></radialGradient><linearGradient id="g1-bg" x1="0" y1="0" x2="0" y2="1"><stop offset="0" stop-color="#141212"></stop><stop offset="1" stop-color="#050504"></stop></linearGradient></defs><rect width="480" height="480" fill="url(#g1-bg)"></rect><circle cx="240" cy="240" r="228" fill="none" stroke="#3a3836" stroke-width="1"></circle><circle cx="240" cy="240" r="222" fill="none" stroke="#2a2826" stroke-width="0.5" stroke-dasharray="2 6"></circle><text x="240" y="53" font-family="monospace" font-size="9" fill="#b82028" text-anchor="middle" opacity="0.9">N</text><text x="430" y="243" font-family="monospace" font-size="9" fill="#b82028" text-anchor="middle" opacity="0.9">E</text><text x="240" y="433" font-family="monospace" font-size="9" fill="#b82028" text-anchor="middle" opacity="0.9">S</text><text x="50" y="243" font-family="monospace" font-size="9" fill="#b82028" text-anchor="middle" opacity="0.9">W</text><circle cx="240" cy="240" r="175" fill="url(#g1-disc)" filter="url(#g1-erode)"></circle><circle cx="240" cy="240" r="175" fill="none" stroke="#000" stroke-width="2"></circle><g><ellipse cx="240" cy="248" rx="145" ry="92" fill="#000" opacity="0.8"></ellipse><path d="M 96 242 L 140 222 L 200 210 L 240 204 L 280 210 L 340 222 L 384 242 L 340 260 L 280 272 L 240 276 L 200 272 L 140 260 Z" fill="url(#g1-sclera)"></path><path d="M 96 242 L 140 222 L 200 210 L 240 204 L 280 210 L 340 222 L 384 242 L 340 260 L 280 272 L 240 276 L 200 272 L 140 260 Z" fill="none" stroke="#000" stroke-width="1.3"></path><clipPath id="g1-eyeclip"><path d="M 96 242 L 140 222 L 200 210 L 240 204 L 280 210 L 340 222 L 384 242 L 340 260 L 280 272 L 240 276 L 200 272 L 140 260 Z"></path></clipPath><g clip-path="url(#g1-eyeclip)"><circle cx="240" cy="240" r="44" fill="url(#g1-iris)"></circle><circle cx="240" cy="240" r="44" fill="none" stroke="#000" stroke-width="1.4"></circle><ellipse cx="240" cy="240" rx="7" ry="18" fill="#000"></ellipse><path d="M 228 228 L 232 226 L 234 230 Z" fill="#e8e8e8" opacity="0.8"></path></g></g><g fill="#3a0609"><path d="M 104 116 L 186 116 L 242 378 L 232 378 Z"></path><path d="M 294 116 L 376 116 L 248 378 L 238 378 Z"></path><path d="M 184 378 L 224 378 L 254 150 L 222 150 Z"></path><path d="M 256 378 L 296 378 L 258 150 L 226 150 Z"></path></g><g fill="#8a1418"><path d="M 112 118 L 180 118 L 240 370 Z"></path><path d="M 300 118 L 368 118 L 240 370 Z"></path><path d="M 196 372 L 220 372 L 248 138 L 232 138 Z"></path><path d="M 260 372 L 284 372 L 248 138 L 232 138 Z"></path><path d="M 112 118 L 100 104 L 128 118 Z"></path><path d="M 368 118 L 380 104 L 352 118 Z"></path><path d="M 232 138 L 240 124 L 248 138 Z"></path><path d="M 240 100 L 246 112 L 240 124 L 234 112 Z"></path></g><g stroke="#b82028" stroke-width="1.1" fill="none" opacity="0.85" stroke-linecap="round"><line x1="178" y1="122" x2="238" y2="366"></line><line x1="366" y1="122" x2="242" y2="366"></line><line x1="220" y1="370" x2="246" y2="144"></line><line x1="284" y1="370" x2="248" y2="144"></line></g><text x="240" y="84" font-family="monospace" font-size="7" fill="#b82028" text-anchor="middle" letter-spacing="2" opacity="0.85">◦ SUBSTRATE  /  VESSEL  /  SIGNAL ◦</text><text x="240" y="403" font-family="monospace" font-size="7" fill="#b82028" text-anchor="middle" letter-spacing="2" opacity="0.85">WR-∅1 · 観 · HAUNT PROTOCOL</text><rect width="480" height="480" fill="url(#g1-vignette)"></rect></svg>